<svg width="862" height="255" viewBox="0 0 862 255" fill="none" xmlns="http://www.w3.org/2000/svg">
<path d="M125.527 15.5024L125.527 94.2768" stroke="#4FC4E9" stroke-width="2"/>
<path d="M128.554 14.5111L129.131 14.5111L129.42 14.0111L132.447 8.76887L132.735 8.26887L132.447 7.76887L129.42 2.52663L129.131 2.02663L128.554 2.02663L122.501 2.02663L121.923 2.02663L121.635 2.52663L118.608 7.76887L118.319 8.26887L118.608 8.76887L121.635 14.0111L121.923 14.5111L122.501 14.5111L128.554 14.5111Z" stroke="#4FC4E9" stroke-width="2"/>
<path d="M0 94.2769H846.179" stroke="#4FC4E9" stroke-width="2"/>
<path d="M856.476 100.519L857.053 100.519L857.342 100.019L860.368 94.7768L860.657 94.2768L860.368 93.7768L857.342 88.5346L857.053 88.0346L856.476 88.0346L850.423 88.0346L849.845 88.0346L849.557 88.5346L846.53 93.7768L846.241 94.2768L846.53 94.7768L849.557 100.019L849.845 100.519L850.423 100.519L856.476 100.519Z" fill="#4FC4E9" stroke="#4FC4E9" stroke-width="2"/>
<path d="M373.888 173.051L373.888 94.2768" stroke="#4FC4E9" stroke-width="2"/>
<path d="M370.861 174.042L370.284 174.042L369.995 174.542L366.969 179.785L366.68 180.285L366.969 180.785L369.995 186.027L370.284 186.527L370.861 186.527L376.914 186.527L377.492 186.527L377.781 186.027L380.807 180.785L381.096 180.285L380.807 179.785L377.781 174.542L377.492 174.042L376.914 174.042L370.861 174.042Z" stroke="#4FC4E9" stroke-width="2"/>
<path d="M734.049 240.163L734.049 95.2774" stroke="#4FC4E9" stroke-width="2"/>
<path d="M730.995 240.999L730.423 240.999L730.136 241.466L727.11 246.399L726.81 246.887L727.117 247.386L730.143 252.32L730.45 252.819L731.049 252.819L737.102 252.819L737.675 252.819L737.961 252.353L740.987 247.419L741.287 246.931L740.981 246.432L737.954 241.499L737.647 240.999L737.048 240.999L730.995 240.999Z" stroke="#4FC4E9" stroke-width="2"/>
<path d="M577.249 16.6788L577.249 95.4532" stroke="#4FC4E9" stroke-width="2"/>
<path d="M580.275 15.6875L580.853 15.6875L581.141 15.1875L584.168 9.94526L584.457 9.44526L584.168 8.94526L581.141 3.70302L580.853 3.20302L580.275 3.20302L574.222 3.20302L573.645 3.20302L573.356 3.70302L570.329 8.94526L570.041 9.44526L570.329 9.94526L573.356 15.1875L573.645 15.6875L574.222 15.6875L580.275 15.6875Z" stroke="#4FC4E9" stroke-width="2"/>
</svg>
