<svg width="26" height="25" viewBox="0 0 26 25" fill="none" xmlns="http://www.w3.org/2000/svg">
<path d="M13.1772 2.6842C7.68167 2.6842 3.21045 7.15542 3.21045 12.6509C3.21045 18.1464 7.68167 22.6176 13.1772 22.6176C18.6726 22.6176 23.1439 18.1464 23.1439 12.6509C23.1439 7.15542 18.6726 2.6842 13.1772 2.6842ZM13.1772 4.21754C13.4363 4.21754 13.6908 4.23288 13.9438 4.25588V4.98421H15.4772V4.54414C17.3403 5.07616 18.9642 6.23183 20.0772 7.81782V10.3509L20.8439 11.8842V12.6509H21.6105C21.6105 12.9315 21.5952 13.2098 21.5684 13.4835C21.5615 13.5571 21.5461 13.6276 21.5377 13.7005C21.5116 13.9021 21.4856 14.1022 21.4457 14.2992C21.4311 14.3728 21.412 14.4449 21.3951 14.5185C21.3506 14.7133 21.3031 14.9065 21.2448 15.0958C21.2249 15.161 21.2019 15.2246 21.1804 15.289C21.1172 15.4837 21.0469 15.676 20.9696 15.8656C20.9466 15.9208 20.9213 15.9744 20.8975 16.0289C20.8117 16.2244 20.7212 16.4168 20.6215 16.6039C20.5985 16.6499 20.5725 16.6936 20.5471 16.7373C20.3083 17.1674 20.0322 17.5758 19.7222 17.9578L19.6532 18.0429C19.5045 18.2215 19.3465 18.3925 19.1848 18.5581C19.161 18.5819 19.1388 18.6079 19.1142 18.6317C18.9476 18.7965 18.7742 18.9544 18.5944 19.1047C18.5691 19.1262 18.5477 19.1484 18.5216 19.1691C18.3422 19.3163 18.1536 19.4528 17.9627 19.5854C17.9328 19.6061 17.906 19.6299 17.8761 19.6498C17.6921 19.7725 17.5019 19.8852 17.3087 19.9948C16.3911 20.5114 15.3842 20.85 14.341 20.993L17.4161 18.6746L18.2594 17.8313L19.3105 15.7176V14.9509L17.7772 14.1842H17.0105L15.4772 12.6509H13.9438L13.1772 13.4176V14.1842L12.4105 14.9509V16.4843L13.9438 17.7109L12.4281 21.0467C8.12787 20.6649 4.74379 17.0478 4.74379 12.6509C4.74379 10.0381 5.93903 7.69899 7.81047 6.15032V6.51755L7.0438 7.28422V8.97089L7.81047 11.8842L11.6438 13.4176H12.4105V12.6509L10.1105 11.8842V10.3509H12.4105L13.1772 8.43423L14.7105 7.28422V6.51755L12.4105 4.98421L11.308 4.43298C11.9211 4.29167 12.548 4.2194 13.1772 4.21754ZM12.4105 11.1176V11.8842H13.9438V11.1176H12.4105Z" fill="white"/>
</svg>
