<svg width="862" height="255" viewBox="0 0 862 255" fill="none" xmlns="http://www.w3.org/2000/svg">
<path d="M856.476 100.576L857.053 100.576L857.342 100.076L860.368 94.8339L860.657 94.3339L860.368 93.8339L857.342 88.5917L857.053 88.0917L856.476 88.0917L850.423 88.0917L849.845 88.0917L849.557 88.5917L846.53 93.8339L846.241 94.3339L846.53 94.8339L849.557 100.076L849.845 100.576L850.423 100.576L856.476 100.576Z" fill="#4FC4E9" stroke="#4FC4E9" stroke-width="2"/>
<path d="M125.527 15.5596L125.527 94.3339" stroke="#4FC4E9" stroke-width="2"/>
<path d="M128.554 14.5683L129.131 14.5683L129.42 14.0683L132.447 8.82603L132.735 8.32603L132.447 7.82603L129.42 2.58379L129.131 2.08379L128.554 2.08379L122.501 2.08379L121.923 2.08379L121.635 2.58379L118.608 7.82603L118.319 8.32603L118.608 8.82603L121.635 14.0683L121.923 14.5683L122.501 14.5683L128.554 14.5683Z" stroke="#4FC4E9" stroke-width="2"/>
<path d="M373.888 173.108L373.888 94.3339" stroke="#4FC4E9" stroke-width="2"/>
<path d="M370.861 174.1L370.284 174.1L369.995 174.6L366.969 179.842L366.68 180.342L366.969 180.842L369.995 186.084L370.284 186.584L370.861 186.584L376.914 186.584L377.492 186.584L377.781 186.084L380.807 180.842L381.096 180.342L380.807 179.842L377.781 174.6L377.492 174.1L376.914 174.1L370.861 174.1Z" stroke="#4FC4E9" stroke-width="2"/>
<path d="M734.049 240.22L734.049 95.3345" stroke="#4FC4E9" stroke-width="2"/>
<path d="M730.995 241.056L730.423 241.056L730.136 241.523L727.11 246.456L726.81 246.944L727.117 247.444L730.143 252.377L730.45 252.876L731.049 252.876L737.102 252.876L737.675 252.876L737.961 252.41L740.987 247.477L741.287 246.988L740.981 246.489L737.954 241.556L737.647 241.056L737.048 241.056L730.995 241.056Z" stroke="#4FC4E9" stroke-width="2"/>
<path d="M577.249 15.7359L577.249 94.5103" stroke="#4FC4E9" stroke-width="2"/>
<path d="M580.275 14.7446L580.853 14.7446L581.141 14.2446L584.168 9.00239L584.457 8.50239L584.168 8.00239L581.141 2.76015L580.853 2.26015L580.275 2.26015L574.222 2.26015L573.645 2.26015L573.356 2.76015L570.329 8.00239L570.041 8.50238L570.329 9.00239L573.356 14.2446L573.645 14.7446L574.222 14.7446L580.275 14.7446Z" stroke="#4FC4E9" stroke-width="2"/>
<path d="M0 94.3339H846.179" stroke="#4FC4E9" stroke-width="2"/>
</svg>
