<svg width="482" height="103" viewBox="0 0 482 103" fill="none" xmlns="http://www.w3.org/2000/svg">
<line y1="-1" x2="420" y2="-1" transform="matrix(-1 -1.74846e-07 -1.74846e-07 1 481.963 2.24707)" stroke="#4FC4E9" stroke-width="2"/>
<line y1="-1" x2="100.804" y2="-1" transform="matrix(0.5 -0.866025 -0.862806 -0.505535 11.5611 87.6265)" stroke="#4FC4E9" stroke-width="2"/>
<path d="M5.63092 100.656L5.05357 100.656L4.76489 100.156L1.64342 94.7498L1.35474 94.2498L1.64342 93.7498L4.76489 88.3433L5.05357 87.8433L5.63092 87.8433L11.8739 87.8433L12.4512 87.8433L12.7399 88.3433L15.8614 93.7498L16.15 94.2498L15.8614 94.7498L12.7399 100.156L12.4512 100.656L11.8739 100.656L5.63092 100.656Z" stroke="#4FC4E9" stroke-width="2"/>
</svg>
