<svg width="527" height="527" viewBox="0 0 527 527" fill="none" xmlns="http://www.w3.org/2000/svg">
<path d="M266.582 66.1814L263.154 64.2027L259.727 66.1814L94.2844 161.7L90.8571 163.679V167.636V358.673V362.63L94.2844 364.609L259.727 460.127L263.154 462.106L266.582 460.127L432.024 364.609L435.452 362.63V358.673V167.636V163.679L432.024 161.7L266.582 66.1814Z" stroke="#FAFAFA" stroke-width="13.7092"/>
<path d="M137.653 298.109L231.478 243.94V135.84L252.272 123.837V256.182L137.653 322.359V298.109Z" fill="#FAFAFA"/>
<path d="M148.536 341.207L263.155 275.029L377.773 341.207L357.664 352.811L263.579 298.493L169.07 353.061L148.536 341.207Z" fill="#FAFAFA"/>
<path d="M274.037 256.179V123.835L294.586 135.694V244.054L388.655 298.362V322.357L274.037 256.179Z" fill="#FAFAFA"/>
</svg>
