<svg width="1227" height="192" viewBox="0 0 1227 192" fill="none" xmlns="http://www.w3.org/2000/svg">
<g clip-path="url(#clip0_462_71)">
<path d="M22.1578 54.254C22.1655 62.2139 25.3336 69.8457 30.9668 75.4742C36.6 81.1027 44.238 84.2682 52.2046 84.2758H111.995C125.785 84.2758 139.01 89.7492 148.761 99.4919C158.511 109.235 163.989 122.448 163.989 136.227C163.989 150.005 158.511 163.219 148.761 172.962C139.01 182.704 125.785 188.178 111.995 188.178H0.203369V166.241H111.995C119.848 166.069 127.322 162.832 132.815 157.222C138.308 151.611 141.384 144.075 141.384 136.227C141.384 128.378 138.308 120.842 132.815 115.232C127.322 109.622 119.848 106.384 111.995 106.212H52.2046C38.413 106.212 25.1863 100.738 15.4342 90.9939C5.68205 81.2499 0.203369 68.0341 0.203369 54.254C0.203369 40.4739 5.68205 27.2581 15.4342 17.5141C25.1863 7.77004 38.413 2.2959 52.2046 2.2959H165.482V24.1745H52.2046C48.255 24.1783 44.3448 24.9593 40.6974 26.473C37.0499 27.9867 33.7365 30.2034 30.9464 32.9965C28.1563 35.7897 25.9441 39.1045 24.4362 42.7519C22.9282 46.3993 22.154 50.3077 22.1578 54.254V54.254Z" fill="#FAFAFA"/>
<path d="M227.274 87.0304V192H205.484V64.7524L227.274 87.0304Z" fill="#FAFAFA"/>
<path d="M374.127 4.3662V192H352.02V58.5426L290.481 120.997L205.484 34.7512V2.99609L290.481 89.2559L374.127 4.3662Z" fill="#FAFAFA"/>
<path d="M595.868 97.8291C595.853 114.852 591.224 131.554 582.472 146.16C573.721 160.766 561.174 172.731 546.164 180.785C531.154 188.838 514.241 192.68 497.221 191.901C480.201 191.123 463.71 185.753 449.499 176.363L445.788 173.905L462.395 157.311L464.841 158.766C478.473 166.886 494.427 170.232 510.177 168.272C525.927 166.312 540.573 159.16 551.795 147.946C563.018 136.733 570.177 122.099 572.138 106.362C574.1 90.6256 570.751 74.6848 562.624 61.0636L561.168 58.6203L577.776 42.0264L580.236 45.7349C590.485 61.1744 595.925 79.3023 595.868 97.8291V97.8291Z" fill="#FAFAFA"/>
<path d="M557.195 21.5352L540.587 38.2018L538.142 36.7475C524.509 28.6267 508.555 25.2813 492.805 27.241C477.056 29.2007 462.41 36.3535 451.187 47.567C439.964 58.7805 432.806 73.414 430.844 89.1507C428.883 104.887 432.231 120.828 440.359 134.45L441.814 136.878L425.236 153.414L422.776 149.705C410.781 131.578 405.422 109.867 407.606 88.2454C409.79 66.6241 419.384 46.4208 434.763 31.0545C450.142 15.6882 470.362 6.1027 492.001 3.92016C513.641 1.73761 535.37 7.09206 553.512 19.0774L557.195 21.5352Z" fill="#FAFAFA"/>
<path d="M825.25 97.7431C825.23 114.76 820.599 131.453 811.85 146.052C803.101 160.652 790.559 172.612 775.556 180.664C760.553 188.717 743.648 192.56 726.635 191.788C709.622 191.016 693.136 185.656 678.925 176.277L675.214 173.819L691.821 157.225L694.266 158.68C707.899 166.8 723.853 170.146 739.603 168.186C755.353 166.226 769.998 159.074 781.221 147.86C792.444 136.647 799.603 122.013 801.564 106.276C803.525 90.5397 800.177 74.5988 792.05 60.9776L790.594 58.5344L807.202 41.9404L809.662 45.649C819.895 61.0933 825.32 79.2209 825.25 97.7431V97.7431Z" fill="#FAFAFA"/>
<path d="M786.621 21.4479L770.013 38.1146L767.568 36.6602C753.935 28.5394 737.981 25.1941 722.231 27.1538C706.481 29.1135 691.836 36.2663 680.613 47.4798C669.39 58.6933 662.231 73.3268 660.27 89.0635C658.309 104.8 661.657 120.741 669.784 134.362L671.24 136.791L654.618 153.414L652.158 149.705C640.163 131.578 634.804 109.867 636.988 88.2454C639.172 66.6241 648.766 46.4208 664.145 31.0545C679.524 15.6882 699.744 6.1027 721.383 3.92016C743.023 1.73761 764.752 7.09206 782.894 19.0774L786.621 21.4479Z" fill="#FAFAFA"/>
<path d="M1035.07 5.75098L934.217 188.917L933.616 187.826L933.543 187.988L920.461 164.283L1007.77 5.75098H1035.07Z" fill="#FAFAFA"/>
<path d="M919.918 113.69L906.338 138.603L833.185 5.75098H860.493L919.918 113.69Z" fill="#FAFAFA"/>
<path d="M1226.44 5.00293H1073.41V26.6299H1226.44V5.00293Z" fill="#FAFAFA"/>
<path d="M1226.44 166.551V188.178H1073.41V51.3794H1093.92V78.935H1209.09V100.562H1093.92V166.551H1226.44Z" fill="#FAFAFA"/>
</g>
<defs>
<clipPath id="clip0_462_71">
<rect width="1226" height="192" fill="white" transform="translate(0.203369)"/>
</clipPath>
</defs>
</svg>
