<svg width="60" height="60" viewBox="0 0 60 60" fill="none" xmlns="http://www.w3.org/2000/svg">
<path d="M49.6792 19.4325L49.6792 18.8551L49.1792 18.5665L30.6501 7.86868L30.1501 7.58001L29.6501 7.86868L11.121 18.5665L10.621 18.8551L10.621 19.4325L10.621 40.8281L10.621 41.4054L11.121 41.6941L29.6501 52.3919L30.1501 52.6806L30.6501 52.3919L49.1792 41.6941L49.6792 41.4054L49.6792 40.8281L49.6792 19.4325Z" stroke="#4FC4E9" stroke-width="2"/>
<path d="M25.0584 33.7827V34.823H19.0439V34.0099L22.4517 30.7216C22.8663 30.323 23.1453 29.9803 23.2887 29.6933C23.4322 29.3983 23.504 29.1034 23.504 28.8084C23.504 28.37 23.3485 28.0312 23.0376 27.7921C22.7347 27.5449 22.2963 27.4214 21.7223 27.4214C20.7976 27.4214 20.0842 27.7243 19.582 28.3301L18.7689 27.6247C19.0957 27.2261 19.5222 26.9152 20.0483 26.692C20.5824 26.4688 21.1763 26.3572 21.8299 26.3572C22.7068 26.3572 23.4043 26.5684 23.9225 26.9909C24.4406 27.4054 24.6997 27.9714 24.6997 28.6889C24.6997 29.1353 24.6041 29.5578 24.4127 29.9563C24.2214 30.3549 23.8587 30.8093 23.3246 31.3195L20.7657 33.7827H25.0584ZM28.6363 26.4528V34.823H27.4525V27.4931H25.5633V26.4528H28.6363ZM33.0619 26.4528V34.823H31.8782V27.4931H29.9889V26.4528H33.0619ZM38.504 29.7411C39.054 29.7411 39.5443 29.8447 39.9747 30.052C40.4132 30.2593 40.7559 30.5582 41.0031 30.9488C41.2502 31.3314 41.3737 31.7739 41.3737 32.2761C41.3737 32.8022 41.2422 33.2646 40.9791 33.6631C40.724 34.0617 40.3693 34.3726 39.9149 34.5958C39.4685 34.811 38.9663 34.9187 38.4083 34.9187C37.2843 34.9187 36.4154 34.5559 35.8016 33.8305C35.1957 33.1051 34.8928 32.0768 34.8928 30.7455C34.8928 29.8129 35.0562 29.0197 35.3831 28.366C35.7179 27.7044 36.1802 27.2061 36.7701 26.8713C37.368 26.5286 38.0615 26.3572 38.8507 26.3572C39.2573 26.3572 39.6399 26.401 39.9986 26.4887C40.3574 26.5684 40.6682 26.688 40.9313 26.8474L40.4769 27.7801C40.0783 27.517 39.5443 27.3855 38.8746 27.3855C38.0057 27.3855 37.3242 27.6565 36.8299 28.1986C36.3357 28.7327 36.0886 29.5139 36.0886 30.5423C36.0886 30.6698 36.0926 30.7694 36.1005 30.8412C36.3397 30.4825 36.6665 30.2114 37.081 30.0281C37.5035 29.8368 37.9778 29.7411 38.504 29.7411ZM38.3605 33.9501C38.9105 33.9501 39.3569 33.8026 39.6997 33.5077C40.0425 33.2127 40.2139 32.8181 40.2139 32.3239C40.2139 31.8297 40.0385 31.4391 39.6877 31.1521C39.345 30.8571 38.8826 30.7097 38.3007 30.7097C37.926 30.7097 37.5912 30.7814 37.2963 30.9249C37.0093 31.0684 36.7821 31.2637 36.6147 31.5108C36.4553 31.7579 36.3755 32.0329 36.3755 32.3359C36.3755 32.6308 36.4513 32.9018 36.6027 33.149C36.7622 33.3881 36.9894 33.5834 37.2843 33.7349C37.5872 33.8784 37.9459 33.9501 38.3605 33.9501Z" fill="#4FC4E9"/>
</svg>
