<svg width="168" height="61" viewBox="0 0 168 61" fill="none" xmlns="http://www.w3.org/2000/svg">
<path d="M18.0387 59.4881L1.1547 30.2442L18.0387 1.0003L149.056 1L165.941 30.2442L149.056 59.4881H18.0387Z" stroke="#FAFAFA" stroke-width="2"/>
<path d="M43.0248 23C44.8382 23 46.2648 23.4333 47.3048 24.3C48.3448 25.1667 48.8648 26.36 48.8648 27.88C48.8648 29.4 48.3448 30.5933 47.3048 31.46C46.2648 32.3267 44.8382 32.76 43.0248 32.76H39.5648V37H37.5648V23H43.0248ZM42.9648 31.02C44.2315 31.02 45.1982 30.7533 45.8648 30.22C46.5315 29.6733 46.8648 28.8933 46.8648 27.88C46.8648 26.8667 46.5315 26.0933 45.8648 25.56C45.1982 25.0133 44.2315 24.74 42.9648 24.74H39.5648V31.02H42.9648ZM53.1873 28.18C53.5207 27.5667 54.014 27.1 54.6673 26.78C55.3207 26.46 56.114 26.3 57.0473 26.3V28.16C56.9407 28.1467 56.794 28.14 56.6073 28.14C55.5673 28.14 54.7473 28.4533 54.1473 29.08C53.5607 29.6933 53.2673 30.5733 53.2673 31.72V37H51.3473V26.4H53.1873V28.18ZM68.8961 31.76C68.8961 31.9067 68.8828 32.1 68.8561 32.34H60.2561C60.3761 33.2733 60.7828 34.0267 61.4761 34.6C62.1828 35.16 63.0561 35.44 64.0961 35.44C65.3628 35.44 66.3828 35.0133 67.1561 34.16L68.2161 35.4C67.7361 35.96 67.1361 36.3867 66.4161 36.68C65.7094 36.9733 64.9161 37.12 64.0361 37.12C62.9161 37.12 61.9228 36.8933 61.0561 36.44C60.1894 35.9733 59.5161 35.3267 59.0361 34.5C58.5694 33.6733 58.3361 32.74 58.3361 31.7C58.3361 30.6733 58.5628 29.7467 59.0161 28.92C59.4828 28.0933 60.1161 27.4533 60.9161 27C61.7294 26.5333 62.6428 26.3 63.6561 26.3C64.6694 26.3 65.5694 26.5333 66.3561 27C67.1561 27.4533 67.7761 28.0933 68.2161 28.92C68.6694 29.7467 68.8961 30.6933 68.8961 31.76ZM63.6561 27.92C62.7361 27.92 61.9628 28.2 61.3361 28.76C60.7228 29.32 60.3628 30.0533 60.2561 30.96H67.0561C66.9494 30.0667 66.5828 29.34 65.9561 28.78C65.3428 28.2067 64.5761 27.92 63.6561 27.92ZM71.0775 30.68H76.4575V32.34H71.0775V30.68ZM84.1491 37.12C83.0957 37.12 82.1491 36.8867 81.3091 36.42C80.4691 35.9533 79.8091 35.3133 79.3291 34.5C78.8624 33.6733 78.6291 32.74 78.6291 31.7C78.6291 30.66 78.8624 29.7333 79.3291 28.92C79.8091 28.0933 80.4691 27.4533 81.3091 27C82.1491 26.5333 83.0957 26.3 84.1491 26.3C85.2024 26.3 86.1424 26.5333 86.9691 27C87.8091 27.4533 88.4624 28.0933 88.9291 28.92C89.4091 29.7333 89.6491 30.66 89.6491 31.7C89.6491 32.74 89.4091 33.6733 88.9291 34.5C88.4624 35.3133 87.8091 35.9533 86.9691 36.42C86.1424 36.8867 85.2024 37.12 84.1491 37.12ZM84.1491 35.44C84.8291 35.44 85.4357 35.2867 85.9691 34.98C86.5157 34.66 86.9424 34.22 87.2491 33.66C87.5557 33.0867 87.7091 32.4333 87.7091 31.7C87.7091 30.9667 87.5557 30.32 87.2491 29.76C86.9424 29.1867 86.5157 28.7467 85.9691 28.44C85.4357 28.1333 84.8291 27.98 84.1491 27.98C83.4691 27.98 82.8557 28.1333 82.3091 28.44C81.7757 28.7467 81.3491 29.1867 81.0291 29.76C80.7224 30.32 80.5691 30.9667 80.5691 31.7C80.5691 32.4333 80.7224 33.0867 81.0291 33.66C81.3491 34.22 81.7757 34.66 82.3091 34.98C82.8557 35.2867 83.4691 35.44 84.1491 35.44ZM94.1444 28.18C94.4777 27.5667 94.971 27.1 95.6244 26.78C96.2777 26.46 97.071 26.3 98.0044 26.3V28.16C97.8977 28.1467 97.751 28.14 97.5644 28.14C96.5244 28.14 95.7044 28.4533 95.1044 29.08C94.5177 29.6933 94.2244 30.5733 94.2244 31.72V37H92.3044V26.4H94.1444V28.18ZM110.273 22.16V37H108.433V35.32C108.006 35.9067 107.466 36.3533 106.813 36.66C106.16 36.9667 105.44 37.12 104.653 37.12C103.626 37.12 102.706 36.8933 101.893 36.44C101.08 35.9867 100.44 35.3533 99.9731 34.54C99.5198 33.7133 99.2931 32.7667 99.2931 31.7C99.2931 30.6333 99.5198 29.6933 99.9731 28.88C100.44 28.0667 101.08 27.4333 101.893 26.98C102.706 26.5267 103.626 26.3 104.653 26.3C105.413 26.3 106.113 26.4467 106.753 26.74C107.393 27.02 107.926 27.44 108.353 28V22.16H110.273ZM104.813 35.44C105.48 35.44 106.086 35.2867 106.633 34.98C107.18 34.66 107.606 34.22 107.913 33.66C108.22 33.0867 108.373 32.4333 108.373 31.7C108.373 30.9667 108.22 30.32 107.913 29.76C107.606 29.1867 107.18 28.7467 106.633 28.44C106.086 28.1333 105.48 27.98 104.813 27.98C104.133 27.98 103.52 28.1333 102.973 28.44C102.44 28.7467 102.013 29.1867 101.693 29.76C101.386 30.32 101.233 30.9667 101.233 31.7C101.233 32.4333 101.386 33.0867 101.693 33.66C102.013 34.22 102.44 34.66 102.973 34.98C103.52 35.2867 104.133 35.44 104.813 35.44ZM123.486 31.76C123.486 31.9067 123.473 32.1 123.446 32.34H114.846C114.966 33.2733 115.373 34.0267 116.066 34.6C116.773 35.16 117.646 35.44 118.686 35.44C119.953 35.44 120.973 35.0133 121.746 34.16L122.806 35.4C122.326 35.96 121.726 36.3867 121.006 36.68C120.299 36.9733 119.506 37.12 118.626 37.12C117.506 37.12 116.513 36.8933 115.646 36.44C114.779 35.9733 114.106 35.3267 113.626 34.5C113.159 33.6733 112.926 32.74 112.926 31.7C112.926 30.6733 113.153 29.7467 113.606 28.92C114.073 28.0933 114.706 27.4533 115.506 27C116.319 26.5333 117.233 26.3 118.246 26.3C119.259 26.3 120.159 26.5333 120.946 27C121.746 27.4533 122.366 28.0933 122.806 28.92C123.259 29.7467 123.486 30.6933 123.486 31.76ZM118.246 27.92C117.326 27.92 116.553 28.2 115.926 28.76C115.313 29.32 114.953 30.0533 114.846 30.96H121.646C121.539 30.0667 121.173 29.34 120.546 28.78C119.933 28.2067 119.166 27.92 118.246 27.92ZM127.992 28.18C128.325 27.5667 128.819 27.1 129.472 26.78C130.125 26.46 130.919 26.3 131.852 26.3V28.16C131.745 28.1467 131.599 28.14 131.412 28.14C130.372 28.14 129.552 28.4533 128.952 29.08C128.365 29.6933 128.072 30.5733 128.072 31.72V37H126.152V26.4H127.992V28.18Z" fill="#FAFAFA"/>
</svg>
