<svg width="492" height="121" viewBox="0 0 492 121" fill="none" xmlns="http://www.w3.org/2000/svg">
<path d="M5.57232 117.913L4.99497 117.913L4.7063 117.413L1.58482 112.007L1.29615 111.507L1.58482 111.007L4.7063 105.6L4.99497 105.1L5.57232 105.1L11.8153 105.1L12.3926 105.1L12.6813 105.6L15.8028 111.007L16.0914 111.507L15.8028 112.007L12.6813 117.413L12.3926 117.913L11.8153 117.913L5.57232 117.913Z" stroke="#4FC4E9" stroke-width="2"/>
<line y1="-1" x2="420" y2="-1" transform="matrix(-1 -1.74846e-07 -1.74846e-07 1 491.502 2.96753)" stroke="#4FC4E9" stroke-width="2"/>
<line y1="-1" x2="120" y2="-1" transform="matrix(0.5 -0.866025 -0.862806 -0.505535 11.5024 104.884)" stroke="#4FC4E9" stroke-width="2"/>
</svg>
