<svg width="17" height="562" viewBox="0 0 17 562" fill="none" xmlns="http://www.w3.org/2000/svg">
<path d="M2.26748 555.708L2.26748 556.283L2.75355 556.571L7.99578 559.674L8.49103 559.967L8.99096 559.671L14.2332 556.568L14.7331 556.272L14.7331 555.686L14.7331 549.48L14.7331 548.904L14.2471 548.616L9.00482 545.513L8.50957 545.22L8.00964 545.516L2.76741 548.619L2.26748 548.915L2.26748 549.501L2.26748 555.708Z" fill="#4FC4E9" stroke="#4FC4E9" stroke-width="2"/>
<path d="M2.26748 12.5961L2.26748 13.1715L2.75355 13.4593L7.99578 16.5625L8.49103 16.8556L8.99096 16.5597L14.2332 13.4565L14.7331 13.1606L14.7331 12.5742L14.7331 6.36787L14.7331 5.7924L14.2471 5.50467L9.00482 2.40149L8.50957 2.10833L8.00964 2.40426L2.76741 5.50744L2.26748 5.80338L2.26748 6.38971L2.26748 12.5961Z" fill="#4FC4E9" stroke="#4FC4E9" stroke-width="2"/>
<path d="M8.50024 11.451L8.50024 551.784" stroke="#4FC4E9" stroke-width="2"/>
</svg>
