<svg width="56" height="85" viewBox="0 0 56 85" fill="none" xmlns="http://www.w3.org/2000/svg">
<line y1="-1" x2="50" y2="-1" transform="matrix(4.37114e-08 -1 -1 -4.37114e-08 0.687256 84.4492)" stroke="#4FC4E9" stroke-width="2"/>
<line y1="-1" x2="53.8485" y2="-1" transform="matrix(-0.867619 0.49723 -0.502775 -0.864417 47.4072 7.67407)" stroke="#4FC4E9" stroke-width="2"/>
<path d="M54.7905 4.43159L54.7905 3.85424L54.2905 3.56556L51.4024 1.8981L50.9024 1.60942L50.4024 1.8981L47.5142 3.56556L47.0142 3.85424L47.0142 4.43159L47.0142 7.76651L47.0142 8.34387L47.5142 8.63254L50.4024 10.3L50.9024 10.5887L51.4024 10.3L54.2905 8.63254L54.7905 8.34387L54.7905 7.76652L54.7905 4.43159Z" stroke="#4FC4E9" stroke-width="2"/>
</svg>
